<svg width="32" height="32" viewBox="0 0 32 32" fill="none" xmlns="http://www.w3.org/2000/svg">
<g clip-path="url(#clip0_103_184)">
<circle cx="16" cy="16" r="16" fill="white"/>
<g clip-path="url(#clip1_103_184)">
<path d="M21.2288 9.16924L20.4447 9.40938L17.4487 5.43241C17.2012 5.10465 16.859 4.8607 16.4685 4.73346C16.0779 4.60622 15.6577 4.60182 15.2646 4.72084L13.7347 5.18941C13.2088 5.35048 12.9104 5.91253 13.0714 6.43842C13.2325 6.96431 13.7946 7.26279 14.3204 7.10172L15.8503 6.63316L18.4177 10.0302L13.8186 11.4388L13.1815 10.5881L13.2676 10.5618C13.7934 10.4007 14.0919 9.83864 13.9309 9.31275C13.7698 8.78686 13.2077 8.48837 12.6819 8.64944L9.83251 9.52214C9.30662 9.68321 9.00813 10.2453 9.1692 10.7712C9.33027 11.297 9.89232 11.5955 10.4182 11.4345L11.1353 11.2148L14.3398 15.4626L13.6992 15.6588C12.6254 13.6555 10.3542 12.6254 8.08456 13.2055C5.36632 13.8916 3.70608 16.837 4.52606 19.5142C5.34605 22.1915 8.09387 23.6507 10.7711 22.8308C13.1233 22.1103 14.5311 19.9117 14.2849 17.5711L18.3007 16.3412C19.3745 18.3445 21.6457 19.3746 23.9154 18.7945C26.6307 18.0988 28.2938 15.163 27.4709 12.4762C26.6539 9.80852 23.906 8.34925 21.2288 9.16924ZM10.5559 18.7133L12.2961 18.1803C12.2547 19.4793 11.3754 20.6376 9.99125 20.9674C8.54022 21.3177 6.98559 20.4761 6.47938 19.0624C5.89996 17.4096 6.77414 15.6881 8.4283 15.1815C9.69998 14.792 10.9853 15.2664 11.7104 16.268L9.97016 16.801C9.44427 16.962 9.14578 17.5241 9.30685 18.05C9.46792 18.5758 10.03 18.8743 10.5559 18.7133ZM17.715 14.4288L16.3764 14.8388L15.0927 13.1403L17.9899 12.253C17.739 12.9364 17.6293 13.6707 17.715 14.4288ZM23.4569 16.8536C21.9668 17.2473 20.3402 16.3754 19.848 14.9051C19.5478 13.993 19.6938 13.0698 20.1608 12.3411L21.2515 13.785C21.5855 14.2265 22.2095 14.3177 22.6511 13.9838C23.0927 13.6498 23.1839 13.0258 22.85 12.5842L21.7409 11.1145L21.7476 11.1021C22.1269 10.9716 22.5288 10.9193 22.9289 10.9484C23.329 10.9776 23.7191 11.0875 24.0755 11.2716C24.432 11.4556 24.7474 11.71 25.0028 12.0194C25.2582 12.3287 25.4483 12.6866 25.5615 13.0715C26.0652 14.7161 25.1382 16.4014 23.4569 16.8536ZM17.3866 23.9421L13.562 25.1135L20.1775 26.2249L19.5918 24.3126L23.4164 23.1412L16.8009 22.0298L17.3866 23.9421Z" fill="url(#paint0_linear_103_184)"/>
</g>
</g>
<defs>
<linearGradient id="paint0_linear_103_184" x1="12.7786" y1="5.48226" x2="19.2213" y2="26.5177" gradientUnits="userSpaceOnUse">
<stop stop-color="#FFB60D"/>
<stop offset="1" stop-color="#E59317"/>
</linearGradient>
<clipPath id="clip0_103_184">
<rect width="32" height="32" fill="white"/>
</clipPath>
<clipPath id="clip1_103_184">
<rect width="24" height="24" fill="white" transform="translate(1.01184 8.04034) rotate(-17.0288)"/>
</clipPath>
</defs>
</svg>
