<svg width="27" height="25" viewBox="0 0 27 25" fill="none" xmlns="http://www.w3.org/2000/svg">
<path d="M15.6137 4.22565L14.8843 4.60046L11.2331 1.21501C10.9316 0.936117 10.5517 0.756412 10.1449 0.700136C9.73797 0.643861 9.32362 0.71372 8.95768 0.900296L7.5346 1.63163C7.04542 1.88303 6.85087 2.48896 7.10227 2.97814C7.35366 3.46733 7.95959 3.66188 8.44877 3.41048L9.87185 2.67914L12.9987 5.56949L8.72063 7.76807L7.94335 7.0432L8.0234 7.00206C8.51258 6.75066 8.70713 6.14473 8.45574 5.65555C8.20434 5.16637 7.59841 4.97182 7.10923 5.22322L4.45875 6.58533C3.96957 6.83673 3.77502 7.44266 4.02641 7.93184C4.27781 8.42102 4.88374 8.61557 5.37292 8.36418L6.03999 8.02136L9.94417 11.6366L9.34825 11.9428C7.93761 10.1605 5.5202 9.54774 3.38867 10.5195C0.834294 11.6748 -0.279781 14.867 1.00006 17.3574C2.2799 19.8478 5.24222 20.7989 7.7326 19.5191C9.92058 18.3946 10.9181 15.9819 10.2624 13.7217L13.998 11.8019C15.4087 13.5842 17.8261 14.197 19.9576 13.2253C22.5074 12.061 23.626 8.87772 22.3416 6.37844C21.0664 3.89695 18.104 2.94581 15.6137 4.22565ZM6.79368 15.5043L8.41243 14.6724C8.60109 15.9584 7.94009 17.2537 6.63598 17.8228C5.2696 18.4238 3.59079 17.8699 2.8429 16.5677C1.98074 15.0433 2.53721 13.1945 4.07591 12.4037C5.25885 11.7958 6.6077 12.0358 7.49826 12.8936L5.87951 13.7255C5.39033 13.9769 5.19578 14.5828 5.44717 15.072C5.69857 15.5612 6.3045 15.7557 6.79368 15.5043ZM13.0838 10.0231L11.8386 10.663L10.2752 9.21781L12.9701 7.83284C12.8439 8.54982 12.8655 9.292 13.0838 10.0231ZM19.1636 11.3959C17.7665 12.0464 16.0114 11.4755 15.2674 10.1152C14.8108 9.27047 14.7915 8.33595 15.1226 7.5362L16.451 8.76483C16.8577 9.14048 17.4881 9.12008 17.8638 8.71341C18.2394 8.30673 18.219 7.67635 17.8123 7.3007L16.4612 6.04996L16.4656 6.03649C16.8159 5.84107 17.2022 5.71868 17.6012 5.6767C18.0002 5.63473 18.4035 5.67404 18.7868 5.79227C19.1702 5.9105 19.5256 6.10518 19.8316 6.36458C20.1376 6.62398 20.3879 6.9427 20.5673 7.30151C21.3535 8.83131 20.7386 10.6539 19.1636 11.3959ZM27 12.8936L4.45874 25L19.8316 24L27 12.8936Z" fill="url(#paint0_linear_49_270)"/>
<defs>
<linearGradient id="paint0_linear_49_270" x1="7.66739" y1="2.24836" x2="17.7233" y2="21.8157" gradientUnits="userSpaceOnUse">
<stop stop-color="#FFC700"/>
<stop offset="1" stop-color="#FDDC68"/>
</linearGradient>
</defs>
</svg>
