<svg width="145" height="38" fill="none" xmlns="http://www.w3.org/2000/svg"><g clip-path="url(#a)"><path d="M11.728 22.737v5.086c0 2.543-1.152 3.46-2.985 3.46-1.832 0-2.984-.917-2.984-3.46V8.596c0-2.543 1.153-3.51 2.985-3.51 1.833 0 2.984.967 2.984 3.51v3.815h5.446V8.952C17.174 3.255 14.24 0 8.587 0 2.932 0 0 3.255 0 8.952v18.515c0 5.697 2.932 8.953 8.587 8.953 5.654 0 8.587-3.256 8.587-8.953v-4.73h-5.446ZM33.457.407l5.864 35.606H33.51l-.996-6.46h-7.067l-.996 6.46h-5.288L25.029.407h8.429Zm-4.555 6.307L26.18 24.721h5.55L29.007 6.713h-.104v.001Zm30.996 29.299h-5.864c-.314-.916-.524-1.476-.524-4.375v-5.595c0-3.306-1.152-4.527-3.77-4.527h-1.99v14.497h-5.759V.407h8.692c5.968 0 8.534 2.696 8.534 8.19v2.797c0 3.662-1.205 6.002-3.77 7.172 2.88 1.271 3.822 3.916 3.822 7.63v5.493c0 1.73.053 3.001.628 4.324h.001Zm-9.372-30.52H47.75V16.43H50c2.148 0 3.456-.915 3.456-3.764v-3.51c0-2.543-.889-3.662-2.931-3.662v-.001ZM77.45.407l5.864 35.606h-5.812l-.994-6.46H69.44l-.994 6.46h-5.289L69.021.407h8.43Zm-4.555 6.307-2.723 18.007h5.55L73.001 6.713h-.105v.001ZM88.643.407H82.83l5.654 35.606h8.587L102.726.407h-5.287L93.093 29.45h-.105L88.643.407Zm27.893 0 5.864 35.606h-5.811l-.995-6.46h-7.068l-.996 6.46h-5.287L108.107.407h8.429Zm-4.555 6.307-2.722 18.007h5.55l-2.723-18.008h-.105v.001Zm26.212 29.299h5.916V.407h-5.131v21.312h-.105L133.061.407h-7.225v35.606h5.184v-25.79h.104l7.069 25.79Z" fill="#9C9C9C"/></g><defs><clipPath id="a"><path fill="#fff" d="M0 0h144.109v38H0z"/></clipPath></defs></svg>