<svg width="157" height="39" fill="none" xmlns="http://www.w3.org/2000/svg"><path fill-rule="evenodd" clip-rule="evenodd" d="M23.7 16.85h2.796c2.89 0 4.452 3.292 2.57 5.425l-2.738 3.1a7.352 7.352 0 0 0 2.798 4.655 7.781 7.781 0 0 0 5.313 1.574 7.716 7.716 0 0 0 5.002-2.344 7.275 7.275 0 0 0 2.033-5.017c0-.324.066-.644.193-.944.128-.299.315-.57.55-.8.236-.228.516-.41.824-.534a2.6 2.6 0 0 1 .972-.186c.673 0 1.318.26 1.794.722.476.462.744 1.088.745 1.742 0 2.586-.838 5.106-2.396 7.203a12.616 12.616 0 0 1-4.463 3.734 13.012 13.012 0 0 1-5.716 1.378 13.02 13.02 0 0 1-5.742-1.273 12.634 12.634 0 0 1-4.535-3.65 12.635 12.635 0 0 1-4.535 3.65 13.02 13.02 0 0 1-5.742 1.273 13.012 13.012 0 0 1-5.716-1.378 12.615 12.615 0 0 1-4.463-3.734 12.074 12.074 0 0 1-2.398-7.203 2.4 2.4 0 0 1 .193-.944c.128-.3.315-.571.55-.8a2.54 2.54 0 0 1 .825-.534c.308-.123.638-.187.972-.186.672 0 1.318.26 1.794.722.476.462.744 1.088.745 1.742a7.272 7.272 0 0 0 2.024 5.03 7.665 7.665 0 0 0 3.606 2.117 7.837 7.837 0 0 0 4.214-.067 7.645 7.645 0 0 0 3.533-2.233 7.31 7.31 0 0 0 1.77-3.716l-2.74-3.1c-1.88-2.132-.32-5.423 2.574-5.423H23.7Z" fill="#9C9C9C"/><path d="M35.549 10.28c.666 0 1.326-.127 1.942-.374a5.087 5.087 0 0 0 1.648-1.068A4.924 4.924 0 0 0 40.24 7.24a4.807 4.807 0 0 0 0-3.774 4.924 4.924 0 0 0-1.101-1.6A5.087 5.087 0 0 0 37.49.799 5.204 5.204 0 0 0 35.55.424c-.667 0-1.327.127-1.943.374a5.087 5.087 0 0 0-1.647 1.068 4.923 4.923 0 0 0-1.101 1.6 4.808 4.808 0 0 0-.387 1.886c0 .648.132 1.289.387 1.887.255.598.63 1.141 1.101 1.599.472.458 1.031.82 1.647 1.068a5.204 5.204 0 0 0 1.943.374Zm-23.7 0c.667 0 1.327-.127 1.943-.374a5.088 5.088 0 0 0 1.648-1.068 4.923 4.923 0 0 0 1.1-1.6c.256-.597.387-1.238.388-1.886 0-.647-.132-1.289-.388-1.887a4.923 4.923 0 0 0-1.1-1.599A5.088 5.088 0 0 0 13.792.798 5.204 5.204 0 0 0 11.85.424c-.667 0-1.327.127-1.943.374A5.087 5.087 0 0 0 8.26 1.866a4.923 4.923 0 0 0-1.102 1.6 4.808 4.808 0 0 0-.387 1.886c0 .648.132 1.289.387 1.887.256.598.63 1.142 1.102 1.6.471.457 1.031.82 1.647 1.067a5.206 5.206 0 0 0 1.943.374Zm69.928-8.652c.782 0 1.424.217 1.927.651.502.434.753 1.004.753 1.71v24.335c0 .733-.236 1.316-.712 1.75-.474.434-1.103.651-1.884.651-.782 0-1.41-.217-1.886-.65-.474-.435-.712-1.018-.712-1.75v-1.018c-.614 1.112-1.508 1.98-2.681 2.604-1.145.624-2.457.936-3.938.936-1.76 0-3.337-.434-4.733-1.302-1.369-.868-2.443-2.089-3.225-3.663-.755-1.6-1.132-3.43-1.132-5.493 0-2.062.377-3.866 1.132-5.413.782-1.546 1.856-2.74 3.225-3.58 1.368-.842 2.947-1.263 4.733-1.263 1.48 0 2.793.3 3.939.896a6.308 6.308 0 0 1 2.638 2.523V3.907c0-.678.223-1.22.67-1.628.476-.434 1.103-.65 1.886-.65ZM74.027 26.9c1.676 0 2.96-.556 3.854-1.669.921-1.112 1.382-2.7 1.382-4.76 0-2.063-.461-3.637-1.382-4.72-.894-1.114-2.164-1.67-3.812-1.67-1.676 0-2.975.542-3.896 1.628-.921 1.085-1.383 2.645-1.383 4.68 0 2.062.462 3.662 1.383 4.802.921 1.14 2.206 1.71 3.854 1.71Zm25.158 3.947c-2.093 0-3.937-.42-5.528-1.26a8.881 8.881 0 0 1-3.645-3.623c-.866-1.574-1.3-3.405-1.3-5.494s.433-3.907 1.3-5.453a8.885 8.885 0 0 1 3.644-3.622c1.592-.84 3.436-1.262 5.53-1.262 2.094 0 3.923.42 5.487 1.262a8.565 8.565 0 0 1 3.645 3.622c.865 1.546 1.299 3.364 1.299 5.453 0 2.09-.434 3.92-1.299 5.494a8.566 8.566 0 0 1-3.645 3.622c-1.564.84-3.393 1.261-5.487 1.261Zm-.04-3.947c1.703 0 3.001-.543 3.894-1.628.895-1.085 1.341-2.686 1.341-4.802 0-2.089-.446-3.676-1.341-4.76-.893-1.114-2.178-1.67-3.854-1.67-1.675 0-2.975.556-3.895 1.67-.893 1.084-1.341 2.671-1.341 4.76 0 2.116.447 3.717 1.341 4.802.894 1.085 2.178 1.628 3.854 1.628Zm32.137-16.685c.782 0 1.41.217 1.884.65.476.435.713 1.018.713 1.75V28.69c0 3.12-.894 5.48-2.681 7.082-1.788 1.6-4.426 2.4-7.918 2.4-3.043 0-5.585-.555-7.623-1.668-1.034-.597-1.55-1.316-1.55-2.157 0-.597.14-1.07.419-1.424.306-.353.698-.53 1.172-.53.252 0 .559.055.922.164.363.135.741.285 1.131.447.874.362 1.77.674 2.681.936.81.217 1.731.326 2.765.326 3.658 0 5.487-1.736 5.487-5.21v-2.604c-.614 1.113-1.508 1.98-2.68 2.605-1.173.597-2.514.895-4.022.895-1.788 0-3.379-.407-4.776-1.22-1.368-.842-2.443-2.008-3.225-3.5-.782-1.493-1.173-3.215-1.173-5.169 0-1.953.377-3.676 1.131-5.168.782-1.52 1.871-2.686 3.267-3.5 1.397-.84 2.988-1.262 4.776-1.262 1.508 0 2.849.312 4.022.936a6.19 6.19 0 0 1 2.68 2.564v-1.058c0-.705.238-1.275.713-1.71.474-.433 1.103-.65 1.885-.65Zm-7.917 15.79c1.676 0 2.974-.53 3.895-1.587.95-1.059 1.424-2.51 1.424-4.355 0-1.872-.474-3.337-1.424-4.395-.921-1.058-2.219-1.587-3.895-1.587-1.648 0-2.947.53-3.896 1.587-.949 1.058-1.425 2.523-1.425 4.395 0 1.845.476 3.296 1.425 4.355.949 1.058 2.248 1.587 3.896 1.587Zm23.352 4.842c-3.044 0-5.501-.583-7.373-1.75-.893-.515-1.34-1.248-1.34-2.197 0-.543.154-.977.46-1.302.308-.353.685-.53 1.132-.53.474 0 1.131.218 1.969.652.893.407 1.703.72 2.429.936.755.217 1.704.325 2.848.325 1.174 0 2.082-.19 2.724-.57.67-.38 1.005-.908 1.005-1.587 0-.46-.139-.827-.419-1.098-.252-.272-.726-.516-1.424-.733-.671-.244-1.704-.515-3.1-.814-2.485-.488-4.273-1.18-5.362-2.075-1.062-.895-1.592-2.13-1.592-3.703 0-1.194.363-2.266 1.089-3.216.726-.976 1.717-1.722 2.974-2.238 1.285-.542 2.737-.814 4.356-.814a12.8 12.8 0 0 1 3.394.448c1.039.25 2.029.662 2.933 1.22.893.543 1.34 1.262 1.34 2.158 0 .542-.153 1.004-.461 1.383-.307.353-.685.53-1.131.53-.307 0-.615-.055-.922-.163-.367-.182-.73-.372-1.089-.57-.81-.407-1.508-.705-2.094-.895-.587-.217-1.313-.326-2.179-.326-1.033 0-1.857.204-2.471.61-.587.407-.88.964-.88 1.67 0 .677.308 1.193.922 1.545.615.353 1.802.706 3.561 1.06 1.871.38 3.337.812 4.398 1.301 1.061.488 1.815 1.1 2.262 1.831.475.733.712 1.67.712 2.808 0 1.845-.796 3.324-2.387 4.436-1.565 1.112-3.659 1.668-6.284 1.668Z" fill="#9C9C9C"/></svg>