<svg width="144" height="50" fill="none" xmlns="http://www.w3.org/2000/svg"><g clip-path="url(#a)"><path d="m25.643 10.784-4.737 28.298H14.1l1.73-10.218H8.497L6.804 39.082H0l4.775-28.298h6.768l-2.03 11.948h7.331l2.032-11.948h6.768Zm13.96 28.298.226-6.17h-6.28l-1.842 6.17h-7.182l9.664-28.298h12.407l.151 28.298h-7.144Zm-1.542-21.42-2.97 9.983h4.926l.413-9.982H38.06v-.001Zm37.888-6.878L71.21 39.082h-6.806l-4.736-15.484-2.557 15.485h-6.808l4.776-28.299h6.993l4.663 14.464 2.443-14.464h6.769Zm15.877 0c3.284 0 5.628.865 7.031 2.594 1.028 1.31 1.541 2.948 1.541 4.913 0 .708-.062 1.454-.186 2.24l-1.467 8.765c-.502 2.96-1.73 5.332-3.685 7.114-1.956 1.782-4.487 2.672-7.597 2.672h-10.94l4.775-28.298h10.528Zm-2.37 6.132h-2.443L84.344 32.95h3.572c1.178 0 2.093-.328 2.744-.982.678-.682 1.14-1.782 1.39-3.301l1.092-6.446a9.28 9.28 0 0 0 .15-1.573c0-2.49-1.277-3.733-3.835-3.733v.001Zm31.094 22.166h-18.876l4.778-28.298h18.875l-1.053 6.132h-12.107l-.865 5.306h10.001l-1.052 6.13h-10.002l-.752 4.599h12.108l-1.054 6.131h-.001Zm21.477 0h-17.146l4.776-28.298h6.768l-3.722 22.167h10.377l-1.053 6.131Zm-66.4 5.036h65.409L138.992 50H73.584l2.044-5.882ZM7.155 0h71.54L76.65 5.882H5.11L7.154 0Z" fill="#9C9C9C"/></g><defs><clipPath id="a"><path fill="#fff" d="M0 0h143.08v50H0z"/></clipPath></defs></svg>