<svg width="209" height="41" fill="none" xmlns="http://www.w3.org/2000/svg"><g clip-path="url(#a)"><path fill-rule="evenodd" clip-rule="evenodd" d="M13.935 36.123a.87.87 0 0 1-.685-.344 2.433 2.433 0 0 1-.45-1.03 13.931 13.931 0 0 1-.25-1.44c-.069-.622-.104-1.249-.106-1.876-.02-1.378-.016-2.756.014-4.134.018-.846.026-1.506.026-1.982V9.565c0-.776.005-1.366.014-1.771.01-.405.04-.863.091-1.374.03-.38.096-.756.2-1.123.1-.283.232-.553.394-.806.15-.265.368-.484.633-.634.308-.154.625-.29.95-.41a6.32 6.32 0 0 1 1.29-.33c.574-.084 1.15-.155 1.728-.212V1.45l-.45-.45H1.412l-.422.45v1.242c2.672.159 4.166.917 4.482 2.273a20.91 20.91 0 0 1 .264 3.462v24.127a24.227 24.227 0 0 1-.159 3.753 1.73 1.73 0 0 1-.316.528 9.886 9.886 0 0 1-.645.7c-.18.173-.35.354-.514.542v.925c13.587 0 21.997.088 25.23.265l1.135-3.832-.712-.503c-5.25.66-10.53 1.058-15.819 1.19Zm25.256-11.046a.73.73 0 0 1-.158.026c-.263 0-.395-.096-.395-.29.001-.876.067-1.751.198-2.617.148-.944.395-1.87.738-2.761a10.49 10.49 0 0 1 1.347-2.537 6.33 6.33 0 0 1 5.128-2.524 4.137 4.137 0 0 1 3.664 1.824 7.255 7.255 0 0 1 1.24 4.175 1.338 1.338 0 0 1-.884 1.242 43.064 43.064 0 0 1-4.416 1.507c-2.107.62-4.207 1.263-6.3 1.93a.74.74 0 0 0-.162.025Zm15.66 8.245c-3.165 1.92-5.898 2.88-8.198 2.88a7.496 7.496 0 0 1-4.377-1.295 7.837 7.837 0 0 1-2.755-3.237 9.992 9.992 0 0 1-.883-4.188c11.495-3.576 17.295-5.365 17.4-5.365a1.948 1.948 0 0 0 1.555-2.008 7.538 7.538 0 0 0-.883-3.726 6.445 6.445 0 0 0-2.386-2.471 11.554 11.554 0 0 0-3.256-1.295 16.624 16.624 0 0 0-3.785-.41 15.96 15.96 0 0 0-6.642 1.335 12.735 12.735 0 0 0-4.758 3.568 16.223 16.223 0 0 0-2.755 5.02 17.956 17.956 0 0 0-.95 5.828c0 4.07 1.1 7.118 3.296 9.144 1.986 1.85 4.79 2.774 8.41 2.774a13.572 13.572 0 0 0 5.972-1.453 46.088 46.088 0 0 0 6.393-3.86l-.577-1.028-.82-.213Zm35.51-27.865a7.717 7.717 0 0 0-3.876-4.202 16.364 16.364 0 0 0-6.986-1.268 20.518 20.518 0 0 0-5.18.634 15.765 15.765 0 0 0-4.457 1.903 9.154 9.154 0 0 0-3.203 3.45 10.303 10.303 0 0 0-1.187 5.007 7.674 7.674 0 0 0 .884 3.58 10.004 10.004 0 0 0 2.215 2.895 26.924 26.924 0 0 0 3.11 2.365 36.256 36.256 0 0 0 3.401 2.008c1.1.565 2.182 1.165 3.244 1.798a14.56 14.56 0 0 1 2.465 1.757c1.95 1.815 2.926 3.54 2.926 5.18a6.372 6.372 0 0 1-2.03 4.637 6.672 6.672 0 0 1-4.877 2.022 6.96 6.96 0 0 1-5.576-2.537 8.705 8.705 0 0 1-2.148-5.79l-1.028-.37-5.246 5.894a12.282 12.282 0 0 0 4.72 4.057 13.845 13.845 0 0 0 6.196 1.415 19.607 19.607 0 0 0 5.774-.9 21.31 21.31 0 0 0 5.326-2.445 12.874 12.874 0 0 0 3.914-3.91 9.172 9.172 0 0 0 1.516-5.035 7.807 7.807 0 0 0-.5-2.814 8.998 8.998 0 0 0-1.292-2.326 11.541 11.541 0 0 0-2.202-2.074 28.166 28.166 0 0 0-2.808-1.865 96.238 96.238 0 0 0-3.532-1.916 45.51 45.51 0 0 1-2.453-1.282c-.76-.445-1.5-.923-2.218-1.434a11.112 11.112 0 0 1-2.002-1.76 8.147 8.147 0 0 1-1.266-2.062 6.28 6.28 0 0 1-.526-2.55 5.367 5.367 0 0 1 1.54-3.885 5.431 5.431 0 0 1 4.073-1.585 6.318 6.318 0 0 1 4.97 2.087 9.244 9.244 0 0 1 2.254 5.048l.923.29 5.142-4.017Zm25.638 10.135a5.342 5.342 0 0 0-1.977-1.982 9.526 9.526 0 0 0-2.61-1.017 13.378 13.378 0 0 0-2.992-.317c-1.919-.027-3.827.3-5.629.965a12.227 12.227 0 0 0-4.165 2.55 13.832 13.832 0 0 0-2.742 3.738 17.76 17.76 0 0 0-1.57 4.427 23.088 23.088 0 0 0-.473 4.73c-.006 1.35.185 2.694.566 3.988.37 1.253.945 2.436 1.7 3.502a7.845 7.845 0 0 0 3.099 2.537c1.418.648 2.963.969 4.521.938 4.939 0 9.579-2.176 13.92-6.527l-.527-.767-.659-.158c-3.216 2.484-6.187 3.726-8.911 3.726a6.301 6.301 0 0 1-2.939-.674 5.92 5.92 0 0 1-2.099-1.743 10.563 10.563 0 0 1-1.332-2.458 13.181 13.181 0 0 1-.751-2.708c-.14-.874-.21-1.758-.211-2.643a20.85 20.85 0 0 1 .29-3.356c.207-1.235.516-2.45.923-3.634a7.575 7.575 0 0 1 1.872-3.066 4.03 4.03 0 0 1 2.9-1.202 3.88 3.88 0 0 1 3.585 1.956 9.276 9.276 0 0 1 1.16 4.81l.923.37 4.983-2.96a6.701 6.701 0 0 0-.855-3.025Zm9.663 7.862c.134-1.038.368-2.06.699-3.052.303-.965.733-1.884 1.278-2.735a6.11 6.11 0 0 1 2.044-1.916 5.628 5.628 0 0 1 2.913-.753 5.818 5.818 0 0 1 3.15.832 5.495 5.495 0 0 1 2.043 2.273c.477.967.822 1.993 1.027 3.052.217 1.14.324 2.3.317 3.462 0 1.057-.009 1.938-.027 2.642a32.146 32.146 0 0 1-.184 2.538 15.27 15.27 0 0 1-.435 2.457c-.207.71-.476 1.4-.804 2.062a5.178 5.178 0 0 1-1.279 1.717 6.324 6.324 0 0 1-1.872 1.057 7.254 7.254 0 0 1-2.57.423 4.677 4.677 0 0 1-2.703-.82 6.06 6.06 0 0 1-1.884-2.021 12.474 12.474 0 0 1-1.134-2.761 18.328 18.328 0 0 1-.607-2.895 21.955 21.955 0 0 1-.158-2.55 24.07 24.07 0 0 1 .186-3.012Zm-3.269 13.663c1.915 1.744 4.956 2.616 9.122 2.616 1.54.01 3.076-.167 4.574-.53a13.499 13.499 0 0 0 3.978-1.703 11.784 11.784 0 0 0 3.177-2.947 13.74 13.74 0 0 0 2.083-4.387 20.91 20.91 0 0 0 .765-5.866 11.003 11.003 0 0 0-3.612-8.51c-2.198-1.972-5.388-2.96-9.57-2.96-4.183 0-7.628 1.296-10.335 3.886a12.99 12.99 0 0 0-4.06 9.804c0 4.722 1.291 8.254 3.875 10.597h.003Zm41.258-20.93c1.406 0 2.408.282 3.006.846.557.68.909 1.506 1.014 2.38.221 1.03.358 2.078.409 3.13.035.926.053 2.12.053 3.582a450.47 450.47 0 0 1-.039 5.695c-.009.572-.005 1.246.012 2.022.005.578.04 1.156.106 1.73.053.38.123.794.211 1.242.061.376.186.737.369 1.07.158.265.352.506.578.715a4.083 4.083 0 0 0 2.899 1.056c1.319 0 2.83-.67 4.535-2.008a49.653 49.653 0 0 0 4.06-3.78l-.606-.9h-.633a6.428 6.428 0 0 1-3.611 1.4 2.065 2.065 0 0 1-1.53-.554 2.052 2.052 0 0 1-.462-.514 3.798 3.798 0 0 1-.276-1.084 15.327 15.327 0 0 1-.132-2.286c0-.581.031-1.52.092-2.814.049-.92.08-1.84.093-2.762v-1.586c.017-1.71.013-2.893-.013-3.555a25.134 25.134 0 0 0-.304-2.695 4.9 4.9 0 0 0-.817-2.352 5.485 5.485 0 0 0-1.635-1.215 5.733 5.733 0 0 0-2.689-.57c-3.093 0-6.679 1.27-10.756 3.807l-.633-.238a5.015 5.015 0 0 0-.909-2.708c-.519-.68-1.411-1.018-2.676-1.018a7.2 7.2 0 0 0-2.228.383c-.835.28-1.632.662-2.374 1.136-.8.503-1.494.97-2.083 1.4-.589.432-1.27.956-2.043 1.573l.975 1.295c.179-.116.36-.23.541-.343.307-.194.575-.352.804-.476.228-.123.501-.268.817-.436.283-.154.579-.283.884-.386.233-.08.477-.125.724-.132.305-.007.606.07.87.225.268.177.47.437.578.74.132.32.246.645.342.977.108.447.17.903.185 1.362.036.6.057 1.084.064 1.453.008.369.012.924.013 1.665v.45c0 1.726-.132 7.01-.395 15.855l.659.37 5.932-1.718c-.176-.757-.308-3.144-.396-7.16-.087-3.928-.13-7.858-.128-11.787 3.058-1.656 5.237-2.484 6.538-2.484l.005.002Zm25.573 9.01a.698.698 0 0 1-.158.028c-.263 0-.395-.097-.396-.29.001-.877.067-1.751.199-2.617a13.6 13.6 0 0 1 .737-2.762c.331-.903.783-1.757 1.345-2.537a6.33 6.33 0 0 1 5.128-2.524 4.139 4.139 0 0 1 3.664 1.824 7.24 7.24 0 0 1 1.239 4.175 1.338 1.338 0 0 1-.883 1.242 43.15 43.15 0 0 1-4.415 1.507c-2.107.62-4.208 1.263-6.301 1.93a.79.79 0 0 0-.158.025h-.001v-.001Zm15.66 8.246c-3.165 1.92-5.898 2.88-8.199 2.88a7.506 7.506 0 0 1-4.377-1.294 7.848 7.848 0 0 1-2.754-3.237 10.001 10.001 0 0 1-.884-4.19c11.495-3.575 17.295-5.363 17.401-5.363a1.949 1.949 0 0 0 1.555-2.01 7.521 7.521 0 0 0-.883-3.725 6.438 6.438 0 0 0-2.386-2.471 11.564 11.564 0 0 0-3.256-1.295 16.617 16.617 0 0 0-3.786-.41 15.961 15.961 0 0 0-6.64 1.335 12.734 12.734 0 0 0-4.758 3.568 16.208 16.208 0 0 0-2.755 5.02 17.928 17.928 0 0 0-.949 5.828c0 4.07 1.098 7.117 3.295 9.144 1.986 1.85 4.789 2.774 8.41 2.774a13.572 13.572 0 0 0 5.972-1.453 46.176 46.176 0 0 0 6.393-3.86l-.577-1.028-.822-.213Z" fill="#9C9C9C"/></g><defs><clipPath id="a"><path fill="#fff" d="M0 0h208.001v41H0z"/></clipPath></defs></svg>