<svg width="153" height="36" fill="none" xmlns="http://www.w3.org/2000/svg"><path d="M50.051 35.52V0h-9.24L21.494 27.408l-3.261-3.984c5.83-.864 9.091-5.856 9.091-11.184 0-5.088-2.866-9.36-6.72-10.992C18.678.432 15.812 0 12.007 0H0v35.52h8.943V24.048h.099L17.49 35.52h9.437l3.212-5.136h10.573v5.136h9.338ZM8.943 17.856V7.968h3.558c3.508 0 5.88 1.728 5.88 4.8 0 3.264-2.224 5.088-5.93 5.088H8.943Zm31.77 5.328h-6.127l6.028-9.84h.099v9.84ZM87.526 35.52V0h-8.943l.395 22.464L64.748 0h-8.053v35.52h8.943l-.247-21.696L79.423 35.52h8.103Zm26.967 0v-7.968h-11.364v-6.096h11.018v-7.968h-11.018v-5.52h11.364V0H94.186v35.52h20.307Zm37.12 0-12.895-17.808L150.823 0h-9.783l-10.327 15.984h-.098V0h-9.339v35.52h9.339V20.16h.098l9.981 15.36h10.919Z" fill="#9C9C9C"/></svg>