<svg width="32" height="32" fill="none" xmlns="http://www.w3.org/2000/svg"><path d="M14.5 1c-3.94 0-4.43.018-5.978.087-1.544.073-2.595.315-3.52.674a7.1 7.1 0 0 0-2.568 1.673A7.075 7.075 0 0 0 .76 6.003c-.359.924-.603 1.975-.674 3.52C.015 11.068 0 11.56 0 15.5c0 3.94.018 4.43.087 5.978.073 1.543.315 2.595.674 3.52a7.11 7.11 0 0 0 1.673 2.568 7.091 7.091 0 0 0 2.569 1.673c.925.357 1.976.603 3.52.674 1.546.072 2.038.087 5.977.087 3.94 0 4.43-.018 5.978-.087 1.543-.073 2.595-.317 3.52-.674a7.127 7.127 0 0 0 2.568-1.673 7.081 7.081 0 0 0 1.673-2.569c.357-.924.603-1.976.674-3.52.072-1.546.087-2.038.087-5.977 0-3.94-.018-4.43-.087-5.978-.073-1.543-.317-2.596-.674-3.52a7.117 7.117 0 0 0-1.673-2.568 7.065 7.065 0 0 0-2.569-1.673c-.924-.359-1.976-.603-3.52-.674C18.932 1.014 18.44 1 14.5 1Zm0 2.61c3.87 0 4.332.02 5.86.086 1.414.066 2.181.3 2.691.501.68.262 1.16.577 1.67 1.083.507.507.82.99 1.083 1.669.198.51.435 1.277.499 2.69.069 1.53.085 1.99.085 5.861 0 3.872-.019 4.332-.09 5.86-.074 1.414-.31 2.181-.509 2.691-.27.68-.578 1.16-1.086 1.67-.506.507-.995.82-1.667 1.083-.508.198-1.287.435-2.7.499-1.54.069-1.993.085-5.872.085-3.88 0-4.333-.019-5.872-.09-1.415-.074-2.194-.31-2.701-.509a4.49 4.49 0 0 1-1.667-1.086 4.403 4.403 0 0 1-1.087-1.667c-.2-.508-.434-1.287-.508-2.7-.054-1.523-.073-1.993-.073-5.854 0-3.862.019-4.333.073-5.874.074-1.414.308-2.192.508-2.7.254-.688.579-1.16 1.087-1.668.507-.506.98-.833 1.667-1.085.507-.2 1.27-.436 2.683-.509 1.54-.054 1.994-.072 5.872-.072l.054.036Zm0 4.444A7.445 7.445 0 0 0 7.054 15.5a7.445 7.445 0 0 0 7.446 7.446 7.445 7.445 0 0 0 7.446-7.446A7.445 7.445 0 0 0 14.5 8.054Zm0 12.28A4.832 4.832 0 0 1 9.667 15.5a4.832 4.832 0 0 1 4.833-4.833 4.832 4.832 0 0 1 4.833 4.833 4.832 4.832 0 0 1-4.833 4.833ZM23.98 7.76a1.741 1.741 0 0 1-3.48 0 1.741 1.741 0 0 1 3.48 0Z" fill="url(#a)"/><defs><linearGradient id="a" x1="14.5" y1="1" x2="14.5" y2="30" gradientUnits="userSpaceOnUse"><stop stop-color="#FFC800"/><stop offset="1" stop-color="#F2A60D"/></linearGradient></defs></svg>