<svg width="52" height="52" fill="none" xmlns="http://www.w3.org/2000/svg"><path d="M0 15a1 1 0 0 0 1 1h2a1 1 0 0 0 1-1v-2a1 1 0 0 0-1-1H1a1 1 0 0 0-1 1v2ZM0 3a1 1 0 0 0 1 1h2a1 1 0 0 0 1-1V1a1 1 0 0 0-1-1H1a1 1 0 0 0-1 1v2ZM12 39a1 1 0 0 0 1 1h2a1 1 0 0 0 1-1v-2a1 1 0 0 0-1-1h-2a1 1 0 0 0-1 1v2ZM12 27a1 1 0 0 0 1 1h2a1 1 0 0 0 1-1v-2a1 1 0 0 0-1-1h-2a1 1 0 0 0-1 1v2ZM12 15a1 1 0 0 0 1 1h2a1 1 0 0 0 1-1v-2a1 1 0 0 0-1-1h-2a1 1 0 0 0-1 1v2ZM12 3a1 1 0 0 0 1 1h2a1 1 0 0 0 1-1V1a1 1 0 0 0-1-1h-2a1 1 0 0 0-1 1v2ZM36 51a1 1 0 0 0 1 1h2a1 1 0 0 0 1-1v-2a1 1 0 0 0-1-1h-2a1 1 0 0 0-1 1v2ZM36 39a1 1 0 0 0 1 1h2a1 1 0 0 0 1-1v-2a1 1 0 0 0-1-1h-2a1 1 0 0 0-1 1v2ZM36 27a1 1 0 0 0 1 1h2a1 1 0 0 0 1-1v-2a1 1 0 0 0-1-1h-2a1 1 0 0 0-1 1v2ZM36 15a1 1 0 0 0 1 1h2a1 1 0 0 0 1-1v-2a1 1 0 0 0-1-1h-2a1 1 0 0 0-1 1v2ZM36 3a1 1 0 0 0 1 1h2a1 1 0 0 0 1-1V1a1 1 0 0 0-1-1h-2a1 1 0 0 0-1 1v2ZM24 39a1 1 0 0 0 1 1h2a1 1 0 0 0 1-1v-2a1 1 0 0 0-1-1h-2a1 1 0 0 0-1 1v2ZM24 27a1 1 0 0 0 1 1h2a1 1 0 0 0 1-1v-2a1 1 0 0 0-1-1h-2a1 1 0 0 0-1 1v2ZM24 15a1 1 0 0 0 1 1h2a1 1 0 0 0 1-1v-2a1 1 0 0 0-1-1h-2a1 1 0 0 0-1 1v2ZM24 3a1 1 0 0 0 1 1h2a1 1 0 0 0 1-1V1a1 1 0 0 0-1-1h-2a1 1 0 0 0-1 1v2ZM48 51a1 1 0 0 0 1 1h2a1 1 0 0 0 1-1v-2a1 1 0 0 0-1-1h-2a1 1 0 0 0-1 1v2ZM48 39a1 1 0 0 0 1 1h2a1 1 0 0 0 1-1v-2a1 1 0 0 0-1-1h-2a1 1 0 0 0-1 1v2ZM48 27a1 1 0 0 0 1 1h2a1 1 0 0 0 1-1v-2a1 1 0 0 0-1-1h-2a1 1 0 0 0-1 1v2ZM48 15a1 1 0 0 0 1 1h2a1 1 0 0 0 1-1v-2a1 1 0 0 0-1-1h-2a1 1 0 0 0-1 1v2ZM48 3a1 1 0 0 0 1 1h2a1 1 0 0 0 1-1V1a1 1 0 0 0-1-1h-2a1 1 0 0 0-1 1v2Z" fill="gray" fill-opacity=".3"/></svg>